<svg aria-hidden="true" style="position: absolute; width: 0; height: 0; overflow: hidden;" version="1.1" xmlns="http://www.w3.org/2000/svg" xmlns:xlink="http://www.w3.org/1999/xlink">
<defs>

<symbol id="cow" viewBox="0 0 32 32">
<path d="M6.434 0.778c-0.254 0.219-0.979 1.733-1.24 2.559-0.31 1.024-0.416 1.791-0.373 2.852 0.056 1.514 0.437 2.661 1.275 3.861 0.218 0.314 0.394 0.585 0.394 0.607 0 0.015-0.134 0.029-0.303 0.029-0.726 0-2.085 0.241-3.128 0.556-1.655 0.497-2.627 1.367-2.627 2.34 0 0.344 0.31 0.929 0.641 1.228 0.641 0.578 2.043 1.126 3.55 1.389 0.521 0.095 2.071 0.256 2.416 0.263 0.063 0 0.085 0.336 0.085 1.44 0 0.951 0.035 1.689 0.106 2.142 0.254 1.623 1.043 3.341 2.085 4.555l0.359 0.417-0.239 0.387c-0.352 0.548-0.486 0.965-0.528 1.587-0.106 1.492 0.824 2.815 2.62 3.744 3.423 1.777 8.742 1.082 10.735-1.404 0.972-1.214 1.085-2.603 0.317-3.861l-0.239-0.388 0.43-0.519c0.803-0.965 1.324-1.93 1.719-3.151 0.331-1.038 0.458-2.040 0.458-3.627 0-0.724 0.021-1.323 0.056-1.323 0.324-0.007 1.881-0.175 2.374-0.263 1.515-0.263 2.888-0.804 3.55-1.389 0.331-0.3 0.641-0.885 0.641-1.228 0-1.082-1.099-1.96-3.142-2.486-0.669-0.175-1.93-0.387-2.543-0.424l-0.289-0.022 0.317-0.439c0.394-0.534 0.888-1.572 1.078-2.252 0.535-1.967 0.204-4.255-0.944-6.442-0.479-0.907-0.81-1.119-1.198-0.76-0.148 0.139-0.211 0.329-0.352 1.016-0.437 2.186-1.247 3.919-2.43 5.199l-0.521 0.57h-11.144l-0.465-0.505c-1.155-1.272-1.993-3.071-2.43-5.264-0.141-0.687-0.204-0.877-0.352-1.016-0.232-0.212-0.458-0.205-0.718 0.022zM7.336 5.114c0.373 0.819 0.838 1.587 1.388 2.296l0.437 0.563-0.458 0.344c-0.43 0.329-0.831 0.797-1.141 1.331l-0.134 0.241-0.338-0.461c-1.155-1.594-1.444-3.546-0.831-5.571 0.296-0.98 0.289-0.972 0.556-0.124 0.127 0.409 0.366 1.031 0.521 1.382zM25.672 3.571c0.289 0.87 0.402 1.565 0.402 2.464 0 1.331-0.352 2.457-1.092 3.466l-0.331 0.453-0.247-0.417c-0.289-0.512-0.782-1.046-1.233-1.353-0.19-0.124-0.338-0.249-0.338-0.263 0-0.022 0.134-0.19 0.303-0.373 0.782-0.87 1.62-2.435 2.036-3.78 0.127-0.417 0.254-0.76 0.275-0.76s0.127 0.256 0.225 0.563zM22.072 8.916c0.782 0.329 1.529 1.272 1.648 2.069 0.063 0.439 0.211 0.717 0.402 0.76 0.084 0.015 0.669 0.066 1.296 0.11 2.226 0.146 3.98 0.621 4.727 1.272 0.345 0.307 0.31 0.563-0.106 0.877-0.831 0.629-2.627 1.104-4.459 1.184-1.212 0.051-1.465 0.088-1.627 0.256-0.12 0.124-0.134 0.256-0.134 1.579 0 1.791-0.092 2.822-0.317 3.656-0.317 1.133-0.944 2.34-1.677 3.195l-0.303 0.351-0.627-0.373c-0.761-0.453-1.472-0.746-2.325-0.943-2.67-0.636-5.621-0.249-7.608 1.002l-0.458 0.293-0.289-0.344c-0.394-0.461-1.014-1.448-1.261-2.003-0.542-1.258-0.704-2.281-0.704-4.533 0-2.186 0.113-2.025-1.507-2.113-2.071-0.11-3.649-0.483-4.642-1.111-0.733-0.468-0.613-0.885 0.409-1.375 0.979-0.475 2.325-0.76 4.191-0.877 1.451-0.095 1.486-0.117 1.62-0.819 0.197-1.060 0.979-1.938 1.965-2.215 0.246-0.073 1.627-0.088 5.854-0.080l5.53 0.015 0.401 0.168zM18.113 24.051c1.726 0.424 3.015 1.214 3.571 2.193 0.134 0.227 0.19 0.461 0.218 0.819 0.028 0.446 0.007 0.556-0.162 0.921-0.782 1.66-3.656 2.756-6.579 2.508-3.515-0.293-5.826-2.252-4.917-4.175 0.493-1.038 2.163-2.033 3.924-2.325 0.289-0.044 0.578-0.095 0.634-0.11s0.69-0.015 1.409 0c0.979 0.022 1.451 0.066 1.902 0.168z"></path>
<path d="M11.126 12.579c-0.437 0.146-0.733 0.336-1.127 0.731-0.345 0.329-0.373 0.717-0.085 0.95 0.268 0.219 0.521 0.19 0.845-0.095 0.409-0.358 0.726-0.504 1.12-0.504 0.394-0.007 0.697 0.132 1.12 0.504 0.324 0.285 0.578 0.314 0.845 0.095 0.141-0.117 0.183-0.212 0.183-0.431 0-0.227-0.049-0.329-0.296-0.578-0.697-0.702-1.733-0.972-2.606-0.673z"></path>
<path d="M19.339 12.571c-0.451 0.168-1.029 0.548-1.261 0.833-0.225 0.278-0.232 0.592 0 0.826 0.232 0.249 0.514 0.234 0.852-0.044 0.831-0.687 1.451-0.709 2.219-0.073 0.197 0.168 0.423 0.3 0.493 0.3 0.345 0 0.627-0.307 0.627-0.673 0-0.234-0.585-0.775-1.113-1.031-0.585-0.285-1.282-0.336-1.817-0.139z"></path>
<path d="M12.147 26.106c-0.204 0.197-0.275 0.483-0.169 0.709 0.078 0.183 0.197 0.256 0.683 0.388 0.218 0.058 0.31 0.132 0.387 0.314 0.099 0.241 0.106 0.241 0.648 0.263l0.542 0.022v-0.205c-0.007-0.293-0.169-0.717-0.38-1.009-0.247-0.336-0.676-0.556-1.162-0.6-0.331-0.029-0.416-0.015-0.549 0.117z"></path>
<path d="M18.874 26.054c-0.352 0.095-0.859 0.57-1 0.943-0.063 0.168-0.127 0.468-0.134 0.665-0.014 0.314 0.014 0.388 0.183 0.541 0.416 0.366 0.965 0.080 0.965-0.504 0-0.285 0.211-0.483 0.585-0.556 0.394-0.073 0.535-0.234 0.542-0.607 0-0.49-0.437-0.68-1.141-0.483z"></path>
</symbol>

<symbol id="facebook" viewBox="0 0 32 32">
<path d="M20.446 15.982h-2.61v9.618h-3.955v-9.618h-1.881v-3.38h1.881v-2.187c0-1.564 0.739-4.014 3.99-4.014l2.929 0.012v3.281h-2.125c-0.349 0-0.839 0.175-0.839 0.921v1.989h2.955l-0.346 3.377z"></path>
</symbol>

<symbol id="github" viewBox="0 0 32 32">
<path d="M15.601 8.165c-4.523 0-8.235 3.712-8.235 8.235 0 3.86 2.708 7.366 6.305 8.235v-2.725c-0.356 0.078-0.684 0.080-1.047-0.027-0.487-0.144-0.882-0.468-1.176-0.962-0.187-0.316-0.519-0.658-0.865-0.633l-0.085-0.961c0.748-0.064 1.395 0.456 1.779 1.101 0.171 0.287 0.367 0.455 0.619 0.53 0.244 0.072 0.505 0.037 0.81-0.070 0.077-0.61 0.356-0.839 0.567-1.16v-0c-2.145-0.32-3-1.458-3.339-2.356-0.45-1.193-0.208-2.683 0.587-3.624 0.015-0.018 0.043-0.066 0.032-0.1-0.364-1.101 0.080-2.012 0.096-2.109 0.421 0.124 0.489-0.125 1.828 0.688l0.231 0.139c0.097 0.058 0.066 0.025 0.163 0.018 0.559-0.152 1.148-0.236 1.728-0.243 0.585 0.008 1.17 0.091 1.752 0.249l0.075 0.008c-0.007-0.001 0.020-0.005 0.065-0.032 1.672-1.013 1.612-0.682 2.060-0.827 0.016 0.097 0.454 1.022 0.094 2.11-0.049 0.15 1.45 1.522 0.619 3.724-0.339 0.899-1.194 2.037-3.339 2.357v0c0.275 0.419 0.605 0.642 0.604 1.507v3.401c3.597-0.869 6.305-4.375 6.305-8.235 0-4.523-3.712-8.235-8.235-8.235v0z"></path>
</symbol>

<symbol id="ice-cream" viewBox="0 0 32 32">
<path d="M16.108 0.107c0.080 0.214 0.241 1.252 0.241 1.573 0 0.797-0.295 1.54-0.837 2.122-0.449 0.482-0.897 0.75-1.975 1.185-1.198 0.489-1.694 0.783-2.256 1.339-0.569 0.569-0.904 1.192-1.024 1.921-0.134 0.797 0 1.359 0.408 1.68l0.208 0.161-0.328 0.208c-0.663 0.435-1.868 1.459-2.075 1.774-0.402 0.603-0.361 1.165 0.094 1.392l0.214 0.107-0.241 0.228c-0.361 0.341-0.435 0.576-0.382 1.192 0.033 0.408 0.020 0.629-0.074 0.964-0.114 0.435-0.114 0.442 0.033 0.75 0.147 0.301 0.562 0.683 0.937 0.843 0.181 0.080 0.187 0.107 0.228 0.723 0.020 0.355 0.053 1.486 0.080 2.517 0.020 1.031 0.067 1.975 0.107 2.089 0.033 0.121 0.161 0.281 0.274 0.361 0.388 0.268 0.656 0.556 0.83 0.89 0.194 0.382 0.408 1.319 1.058 4.559l0.455 2.276 0.281 0.268c0.536 0.529 1.56 0.77 3.247 0.77 1.694 0 2.705-0.234 3.24-0.763l0.288-0.274 0.415-2.109c0.917-4.613 0.997-4.867 1.714-5.436 0.221-0.181 0.435-0.402 0.475-0.502 0.047-0.114 0.094-0.991 0.127-2.316 0.027-1.178 0.067-2.343 0.094-2.591l0.040-0.449 0.435-0.328c0.549-0.422 0.763-0.803 0.763-1.393-0.007-0.696-0.462-1.459-1.292-2.142l-0.395-0.321 0.194-0.274c0.81-1.118 0.301-2.664-1.205-3.695l-0.455-0.315 0.167-0.174c0.743-0.797 0.864-3.173 0.241-4.827-0.375-0.984-1.232-2.055-2.283-2.845-0.515-0.388-1.935-1.245-2.062-1.245-0.027 0-0.027 0.047-0.007 0.107zM18.036 2.443c0.355 0.348 0.783 0.823 0.951 1.064 0.997 1.392 1.252 3.14 0.649 4.425-0.241 0.522-0.964 1.299-1.633 1.761-1.024 0.71-3.327 1.901-4.934 2.557-2.584 1.051-4.084 1.252-4.258 0.562-0.067-0.261 0.127-0.469 0.951-1.018 0.743-0.509 4.077-2.986 4.137-3.086 0.020-0.027-0.321 0.127-0.75 0.341-1.453 0.736-2.142 0.596-2.109-0.428 0.020-0.743 0.556-1.587 1.299-2.069 0.187-0.12 0.77-0.388 1.305-0.603 1.761-0.71 2.296-1.071 2.892-1.962 0.355-0.529 0.743-1.506 0.77-1.921 0.007-0.147 0.034-0.261 0.054-0.261s0.321 0.288 0.676 0.636zM19.864 10.049c0.489 0.274 0.997 0.743 1.218 1.111 0.388 0.663 0.187 1.325-0.649 2.169-0.91 0.924-2.464 1.808-4.171 2.37-1.573 0.515-3.079 0.756-5.235 0.83l-1.339 0.047 0.87 0.054c1.125 0.074 3.3 0.007 4.144-0.127 2.243-0.355 4.151-1.064 5.516-2.042 0.308-0.221 0.629-0.402 0.716-0.402 0.221 0 1.185 0.924 1.379 1.312 0.107 0.221 0.134 0.382 0.114 0.596-0.1 0.89-1.185 1.366-3.802 1.68-3.2 0.382-7.384 0.007-9.172-0.817-0.844-0.388-0.984-0.609-0.77-1.198 0.067-0.187 0.080-0.408 0.054-0.723-0.033-0.415-0.027-0.469 0.12-0.623 0.335-0.361 0.897-0.569 2.959-1.091 0.723-0.187 1.707-0.482 2.176-0.656 1.138-0.415 3.274-1.493 4.264-2.156 0.93-0.616 1.064-0.643 1.607-0.335zM10.974 18.243c1.406 0.408 2.651 0.529 4.967 0.482 1.741-0.034 2.812-0.141 4.358-0.415 0.315-0.053 0.589-0.1 0.623-0.1 0.074 0 0.053 2.571-0.027 3.247-0.087 0.716-0.281 1.272-0.489 1.406-0.214 0.141-1.285 0.288-2.718 0.368-2.939 0.161-5.958 0-6.895-0.375-0.509-0.207-0.562-0.475-0.569-2.959 0-1.654 0.013-1.881 0.1-1.848 0.053 0.020 0.348 0.107 0.649 0.194zM12.56 23.933c0.482 0.060 1.004 0.121 1.165 0.141l0.288 0.034-0.254 0.281c-0.328 0.355-0.83 1.064-1.011 1.426-0.207 0.415-0.274 0.442-0.582 0.274l-0.261-0.147-0.147-0.91c-0.080-0.495-0.167-0.971-0.187-1.051-0.060-0.174-0.12-0.174 0.991-0.047zM19.697 23.859c0 0.013-0.033 0.187-0.067 0.382-0.040 0.201-0.208 1.292-0.375 2.43-0.341 2.377-0.569 3.495-0.777 3.869-0.288 0.502-0.977 0.797-2.095 0.89-0.435 0.034-1.747-0.053-1.821-0.12-0.053-0.060 1.098-1.486 1.279-1.58 0.167-0.094 0.214-0.080 0.783 0.214 0.663 0.348 0.997 0.402 0.997 0.181s-0.174-0.435-0.602-0.73c-0.395-0.281-0.536-0.442-0.536-0.629 0-0.053 0.194-0.355 0.428-0.669s0.576-0.817 0.75-1.118l0.328-0.542 0.301 0.040c0.609 0.087 0.77 0.080 0.75-0.053-0.013-0.067-0.127-0.261-0.254-0.422-0.127-0.167-0.228-0.335-0.228-0.368 0-0.127 0.623-1.299 0.823-1.546 0.174-0.214 0.315-0.321 0.315-0.228zM15.513 24.395c0.335 0.221 1.593 1.312 1.674 1.446 0.034 0.060-1.259 2.082-1.513 2.37-0.027 0.034-0.167-0.033-0.308-0.141-0.141-0.114-0.663-0.475-1.165-0.803l-0.904-0.596 0.542-0.917c0.964-1.613 0.944-1.587 1.151-1.587 0.107 0 0.341 0.1 0.522 0.228zM18.050 24.636c-0.234 0.288-0.428 0.469-0.509 0.469-0.174 0-0.455-0.154-0.93-0.502l-0.395-0.288 0.79-0.047c0.428-0.020 0.844-0.047 0.917-0.060 0.536-0.087 0.536-0.080 0.127 0.428zM12.989 27.856c0.616 0.241 1.66 0.81 1.962 1.064 0.214 0.174 0.214 0.187 0.127 0.402-0.054 0.121-0.234 0.442-0.415 0.716-0.174 0.268-0.375 0.602-0.449 0.743-0.214 0.415-0.281 0.449-0.723 0.328-0.475-0.141-0.73-0.382-0.864-0.817-0.181-0.609-0.469-2.33-0.435-2.598 0.013-0.1 0.295-0.040 0.797 0.161z"></path>
</symbol>

<symbol id="telegram" viewBox="0 0 32 32">
<path d="M12.866 18.375l-0.318 4.169c0.454 0 0.651-0.182 0.887-0.401l2.13-1.9 4.414 3.017c0.81 0.421 1.38 0.199 1.598-0.695l2.898-12.673c0.257-1.117-0.433-1.554-1.222-1.28l-17.032 6.086c-1.162 0.421-1.145 1.026-0.198 1.3l4.355 1.264 10.115-5.907c0.476-0.294 0.909-0.131 0.553 0.163l-8.182 6.857z"></path>
</symbol>

<symbol id="weight" viewBox="0 0 32 32">
<path d="M14.177 0.547c-3.974 0.589-7.247 2.796-8.451 5.685-0.384 0.913-0.488 1.473-0.488 2.573 0.007 0.812 0.037 1.114 0.162 1.552 0.259 0.863 0.443 1.301 0.827 1.919l0.355 0.575-0.399 0.489c-3.154 3.924-3.502 9.444-0.872 13.793 0.982 1.632 2.585 3.234 4.152 4.169l0.465 0.273 12.743-0.108 0.303-0.165c1.056-0.597 2.549-1.926 3.383-3.004 1.256-1.639 2.076-3.551 2.423-5.621 0.118-0.74 0.118-2.932-0.007-3.63-0.377-2.149-1.182-3.989-2.453-5.621-0.244-0.309-0.436-0.568-0.436-0.589 0-0.014 0.133-0.237 0.288-0.489 0.362-0.575 0.687-1.315 0.864-1.962 0.199-0.719 0.199-2.516 0-3.234-0.709-2.552-2.837-4.679-5.843-5.851-0.842-0.331-2.283-0.683-3.213-0.798-0.864-0.101-2.999-0.079-3.804 0.043zM18.676 1.718c3.945 0.769 6.833 3.184 7.365 6.16 0.118 0.668 0.044 1.804-0.155 2.437-0.199 0.618-0.569 1.344-1.005 1.962-0.177 0.252-0.325 0.539-0.325 0.633s0.155 0.338 0.377 0.582c1.847 2.048 2.822 4.614 2.822 7.389-0.007 3.155-1.219 5.922-3.553 8.093-0.399 0.374-0.968 0.841-1.271 1.042l-0.554 0.374-12.211 0.050-0.473-0.302c-1.714-1.114-3.258-2.954-4.115-4.909-1.079-2.472-1.189-5.34-0.31-7.913 0.465-1.337 1.086-2.429 2.031-3.579 0.384-0.46 0.561-0.733 0.561-0.863 0-0.108-0.192-0.46-0.443-0.827-0.886-1.287-1.248-2.717-1.034-4.068 0.222-1.366 0.842-2.487 1.987-3.601 1.492-1.445 3.575-2.401 6.020-2.76 1.012-0.151 3.25-0.093 4.285 0.101z"></path>
<path d="M14.51 2.983c-3.029 0.496-5.4 2.178-6.176 4.384-0.177 0.496-0.207 0.69-0.207 1.402s0.030 0.906 0.207 1.402c0.111 0.316 0.318 0.755 0.458 0.978 0.384 0.618 0.554 0.64 1.315 0.18 1.138-0.697 2.445-1.207 3.804-1.488 0.916-0.187 2.674-0.259 3.671-0.144 1.559 0.18 3.25 0.74 4.602 1.538 0.384 0.223 0.776 0.41 0.872 0.41 0.561 0 1.278-1.617 1.278-2.875 0-2.796-2.674-5.189-6.464-5.786-0.805-0.129-2.585-0.129-3.361 0zM18.166 4.133c1.271 0.273 2.438 0.791 3.317 1.473 1.182 0.913 1.817 2.185 1.714 3.414-0.037 0.489-0.222 1.15-0.332 1.222-0.029 0.014-0.443-0.158-0.916-0.388-0.983-0.474-2.098-0.855-3.228-1.1-0.687-0.144-0.975-0.165-2.512-0.158-1.514 0-1.832 0.022-2.489 0.158-1.138 0.244-2.024 0.546-3.117 1.064-1.101 0.525-1.042 0.532-1.241-0.115-0.258-0.841-0.096-1.955 0.406-2.796 0.266-0.446 0.997-1.186 1.529-1.553 1.012-0.697 1.899-1.013 3.804-1.358 0.391-0.072 2.563 0.029 3.066 0.137z"></path>
<path d="M16.962 13.405c-0.207 0.259-0.207 0.503 0.007 0.712 0.14 0.137 0.281 0.172 0.79 0.208 0.99 0.072 1.935 0.359 2.785 0.848 0.606 0.359 1.529 1.229 1.943 1.854 0.613 0.898 1.034 2.185 1.034 3.134 0 0.331 0.029 0.431 0.185 0.575 0.236 0.237 0.547 0.237 0.776 0 0.163-0.165 0.17-0.208 0.125-0.913-0.207-3.479-3.184-6.383-6.744-6.577l-0.739-0.043-0.163 0.201z"></path>
</symbol>


<symbol id="burger-menu" viewBox="0 0 40 40"><path d="M8 14.6667V12H32V14.6667H8ZM8 21.3333H32V18.6667H8V21.3333ZM8 28H32V25.3333H8V28Z"/>
</symbol>

<symbol id="button-arrow" viewBox="0 0 11 11">
<path d="m 0.89453125,0.00585938 a 1,1 0 0 0 -0.671875,0.36523437 1,1 0 0 0 0.1484375,1.40624995 L 4.359375,5 0.37109375,8.2226563 a 1,1 0 0 0 -0.1484375,1.40625 1,1 0 0 0 1.40624995,0.1484375 L 6.5761719,5.7773437 a 1.0001,1.0001 0 0 0 0,-1.5546875 L 1.6289062,0.22265625 A 1,1 0 0 0 0.89453125,0.00585938 Z"/>
</symbol>

<symbol id="close" viewBox="0 0 20 20">
<path d="M10.7831 9.99997L15.3887 5.39441C15.4797 5.28813 15.5272 5.15142 15.5218 5.0116C15.5164 4.87178 15.4585 4.73915 15.3595 4.64021C15.2606 4.54127 15.128 4.48331 14.9881 4.47791C14.8483 4.4725 14.7116 4.52006 14.6053 4.61108L9.99977 9.21663L5.39421 4.60552C5.2896 4.50091 5.14771 4.44214 4.99977 4.44214C4.85182 4.44214 4.70994 4.50091 4.60532 4.60552C4.50071 4.71014 4.44194 4.85202 4.44194 4.99997C4.44194 5.14791 4.50071 5.2898 4.60532 5.39441L9.21643 9.99997L4.60532 14.6055C4.54717 14.6553 4.49993 14.7166 4.46659 14.7855C4.43324 14.8545 4.4145 14.9295 4.41155 15.006C4.40859 15.0826 4.42148 15.1589 4.44941 15.2301C4.47734 15.3014 4.51971 15.3662 4.57385 15.4203C4.62799 15.4745 4.69274 15.5168 4.76403 15.5448C4.83532 15.5727 4.91162 15.5856 4.98813 15.5826C5.06464 15.5797 5.13972 15.5609 5.20864 15.5276C5.27757 15.4942 5.33885 15.447 5.38866 15.3889L9.99977 10.7833L14.6053 15.3889C14.7116 15.4799 14.8483 15.5274 14.9881 15.522C15.128 15.5166 15.2606 15.4587 15.3595 15.3597C15.4585 15.2608 15.5164 15.1282 15.5218 14.9883C15.5272 14.8485 15.4797 14.7118 15.3887 14.6055L10.7831 9.99997Z"/>

<symbol id="cross-header" viewBox="0 0 32 32">
    <path d="M23.884 6.706 16 14.59 8.116 6.706a.995.995 0 0 0-1.38.031 1 1 0 0 0-.031 1.38l7.88 7.884-7.882 7.882a1.002 1.002 0 0 0-.018 1.427.998.998 0 0 0 1.427-.015l7.886-7.882 7.884 7.884a1 1 0 0 0 1.38-.03 1 1 0 0 0 .03-1.38l-7.884-7.884 7.884-7.886a1.002 1.002 0 0 0 .018-1.427.998.998 0 0 0-1.427.015v.002z"/>
</symbol>

<symbol id="arrow-default" viewBox="0 0 41 16">
<path d="M40.7071 8.70711C41.0976 8.31658 41.0976 7.68342 40.7071 7.29289L34.3431 0.928932C33.9526 0.538408 33.3195 0.538408 32.9289 0.928932C32.5384 1.31946 32.5384 1.95262 32.9289 2.34315L38.5858 8L32.9289 13.6569C32.5384 14.0474 32.5384 14.6805 32.9289 15.0711C33.3195 15.4616 33.9526 15.4616 34.3431 15.0711L40.7071 8.70711ZM0 9H40V7H0V9Z"/>
</symbol>

<symbol id="arrow-hover" viewBox="0 0 51 16">
<path d="M50.7071 8.70711C51.0976 8.31658 51.0976 7.68342 50.7071 7.29289L44.3431 0.928932C43.9526 0.538408 43.3195 0.538408 42.9289 0.928932C42.5384 1.31946 42.5384 1.95262 42.9289 2.34315L48.5858 8L42.9289 13.6569C42.5384 14.0474 42.5384 14.6805 42.9289 15.0711C43.3195 15.4616 43.9526 15.4616 44.3431 15.0711L50.7071 8.70711ZM0 9H50V7H0V9Z"/>
</symbol>

<symbol id="arrow-focus" viewBox="0 0 52 24">
<path d="M51.0607 13.0607C51.6464 12.4749 51.6464 11.5251 51.0607 10.9393L41.5147 1.3934C40.9289 0.807611 39.9792 0.807611 39.3934 1.3934C38.8076 1.97919 38.8076 2.92893 39.3934 3.51472L47.8787 12L39.3934 20.4853C38.8076 21.0711 38.8076 22.0208 39.3934 22.6066C39.9792 23.1924 40.9289 23.1924 41.5147 22.6066L51.0607 13.0607ZM0 13.5H50V10.5H0V13.5Z"/>
</symbol>

<symbol id="logo-icecream" viewBox="0 0 35 32">
<path d="M17.384 14.109c1.632-4.366-1.747-6.756-3.988-8.327-0.428-0.321-0.856-0.621-1.204-0.895-0.606-0.506-1.063-1.171-1.307-1.931l-0.008-0.030c-0.12-0.368-0.189-0.792-0.189-1.232 0-0.398 0.057-0.784 0.162-1.148l-0.007 0.029c0.011-0.036 0.017-0.078 0.017-0.121 0-0.132-0.057-0.251-0.148-0.333l-0-0c-0.082-0.076-0.193-0.122-0.314-0.122-0.057 0-0.111 0.010-0.161 0.029l0.003-0.001c-0.796 0.315-1.483 0.727-2.090 1.231l0.012-0.010c-0.591 0.451-1.068 1.021-1.402 1.675l-0.013 0.028c-0.319 0.625-0.507 1.362-0.509 2.143v0c-0.423 0.328-0.796 0.713-1.109 1.144-0.514 0.684-0.823 1.547-0.823 2.483 0 0.070 0.002 0.139 0.005 0.208l-0-0.010c-0.669 0.607-1.18 1.375-1.472 2.245l-0.011 0.037c-0.165 0.487-0.26 1.048-0.26 1.631 0 0.38 0.041 0.751 0.117 1.108l-0.006-0.034c-0.271 0.163-0.48 0.404-0.598 0.692l-0.003 0.010c-0.118 0.292-0.135 0.615-0.047 0.918 0.086 0.301 0.271 0.568 0.526 0.757s0.566 0.291 0.884 0.288h0.030v2.483c0 0.253 0.101 0.494 0.282 0.672s0.426 0.278 0.682 0.278h0.749l1.221 10.43c0.025 0.232 0.136 0.446 0.313 0.603s0.404 0.242 0.642 0.242h5.080c0.237 0 0.466-0.087 0.643-0.243s0.29-0.371 0.317-0.602l1.221-10.429h0.749c0.256 0 0.501-0.101 0.682-0.278 0.174-0.171 0.282-0.409 0.282-0.673 0-0 0-0 0-0v0-2.483h0.029c0.387 0 0.76-0.152 1.033-0.421s0.428-0.637 0.428-1.019c0-0.005 0-0.010 0-0.015 0-0.397-0.164-0.755-0.428-1.010l-0-0-0.013 0.004zM6.388 6.188c0.617 2.285 2.998 3.183 5.171 3.987 0.070 0.043 0.154 0.068 0.244 0.068 0.197 0 0.365-0.121 0.435-0.293l0.001-0.003c0.020-0.049 0.032-0.106 0.032-0.166 0-0.154-0.076-0.29-0.193-0.372l-0.001-0.001c-0.053-0.038-0.116-0.065-0.184-0.078l-0.003-0c-2.339-0.875-4.546-1.689-4.712-4.024-0.004-0.070-0.007-0.151-0.007-0.233 0-0.593 0.134-1.155 0.373-1.657l-0.010 0.023c0.284-0.599 0.693-1.096 1.198-1.475l0.010-0.007c0.326-0.266 0.675-0.504 1.045-0.708-0.011 0.132-0.018 0.285-0.018 0.439s0.007 0.308 0.019 0.459l-0.001-0.020c0.050 0.669 0.236 1.321 0.546 1.918 0.324 0.613 0.747 1.13 1.254 1.549l0.008 0.007c0.355 0.3 0.797 0.608 1.285 0.937 1.127 0.798 2.407 1.689 3.221 2.897 0.508 0.714 0.813 1.604 0.813 2.565 0 0.621-0.127 1.213-0.357 1.75l0.011-0.029h-1.893c-3.902 0-8.387-1.064-9.274-4.045-0.083-0.279-0.131-0.599-0.131-0.93 0-0.337 0.049-0.662 0.141-0.969l-0.006 0.024c0.19-0.635 0.54-1.174 1.004-1.589l0.003-0.003-0.022-0.021zM9.901 20.583l1.432 1.41-1.432 1.411-1.431-1.419 1.432-1.401zM13.182 24.285l-1.182 1.165-1.432-1.411 1.432-1.406 1.242 1.221-0.060 0.43zM9.901 27.52l-1.431-1.411 1.432-1.41 1.43 1.41-1.431 1.411zM9.245 24.049l-1.431 1.411-1.191-1.173-0.051-0.422 1.242-1.221 1.431 1.406zM7.155 26.109l-0.287 0.283-0.073-0.642 0.36 0.359zM7.005 27.554l0.809-0.798 1.572 1.563c0.008 0.031 0.018 0.062 0.029 0.093h-2.312l-0.099-0.857zM11.991 26.755l0.81 0.798-0.099 0.845h-2.377l1.667-1.642zM12.934 26.393l-0.287-0.284 0.364-0.359-0.077 0.642zM13.362 22.702l-0.715-0.718 0.908-0.895-0.193 1.613zM11.987 21.342l-1.358-1.334h2.716l-1.357 1.334zM7.811 21.342l-1.358-1.334h2.716l-1.357 1.334zM12.437 30.361h-5.077c-0.016-0.002-0.028-0.014-0.030-0.029l-0-0-0.12-1.013h5.38l-0.115 1.013c-0.001 0.009-0.005 0.017-0.012 0.022l-0 0c-0.006 0.005-0.014 0.008-0.023 0.008-0 0-0 0-0 0v0h-0.004zM16.365 15.651h-1.491c-0.013-0.001-0.028-0.002-0.044-0.002-0.121 0-0.232 0.046-0.315 0.12l0-0c-0.093 0.084-0.152 0.206-0.152 0.341 0 0.067 0.014 0.131 0.040 0.188l-0.001-0.003c0.054 0.119 0.154 0.21 0.276 0.25l0.003 0.001c0.044 0.015 0.094 0.023 0.146 0.023 0.016 0 0.032-0.001 0.047-0.002l-0.002 0h0.531v2.483c-0.002 0.017-0.016 0.029-0.033 0.029-0 0-0 0-0 0v0h-10.955c-0 0-0 0-0 0-0.017 0-0.031-0.013-0.033-0.029l-0-0v-2.483h8.485c0.12-0.011 0.225-0.066 0.301-0.148l0-0c0.075-0.081 0.121-0.19 0.121-0.309s-0.046-0.228-0.121-0.31l0 0c-0.076-0.082-0.181-0.137-0.299-0.149l-0.002-0h-9.425c-0.014 0.001-0.030 0.002-0.047 0.002-0.138 0-0.264-0.052-0.359-0.137l0.001 0c-0.106-0.096-0.172-0.234-0.173-0.387v-0c0 0 0-0 0-0 0-0.153 0.066-0.291 0.172-0.385l0.001-0c0.094-0.085 0.22-0.137 0.357-0.137 0.017 0 0.034 0.001 0.051 0.002l-0.002-0h0.973c0.12-0.012 0.224-0.067 0.3-0.149l0-0c0.075-0.081 0.121-0.19 0.121-0.309s-0.046-0.228-0.121-0.31l0 0c-0.076-0.082-0.181-0.137-0.299-0.148l-0.002-0h-0.855c-0.050-0.252-0.079-0.541-0.079-0.837 0-0.391 0.050-0.771 0.145-1.133l-0.007 0.031c0.174-0.668 0.476-1.249 0.881-1.743l-0.006 0.008c0.3 0.92 1.070 2.178 2.998 3.179 1.812 0.933 4.211 1.41 7.128 1.41h1.714c0.014-0.001 0.030-0.002 0.047-0.002 0.138 0 0.264 0.052 0.359 0.137l-0-0c0.106 0.096 0.172 0.234 0.173 0.387v0c0 0 0 0.001 0 0.001 0 0.153-0.067 0.29-0.172 0.385l-0 0c-0.094 0.085-0.219 0.137-0.357 0.137-0.017 0-0.034-0.001-0.051-0.002l0.002 0h0.029zM19.859 28.392l-0.342 0.525 0.008 0.004 0.335-0.529zM23.54 28.568l0.627-0.013-0.017-0.724-0.714 0.12 0.105 0.617zM23.583 30.495l0.16 0.606 0.477-0.126-0.011-0.493-0.627 0.013zM18.752 30.588l0.141-0.611h-0.004l-0.136 0.611zM16.367 29.523v0zM15.505 27.565l0.626 0.003v-0.003h-0.626zM15.804 26.196l-0.562-0.277v0.002l0.562 0.275zM17.724 24.557l0.223 0.586 0.002-0.001-0.224-0.585zM23.877 24.397l0.624 0.049 0.042-0.529-0.515-0.127-0.151 0.607zM23.724 26.361l-0.116 0.615 0.686 0.131 0.055-0.697-0.625-0.048zM22.055 25.558c-0.94 0-1.731 0.1-2.307 0.354-0.296 0.13-0.564 0.313-0.76 0.572-0.187 0.244-0.299 0.554-0.299 0.89 0 0.005 0 0.011 0 0.016v-0.001h1.253c0-0.073 0.017-0.115 0.044-0.149 0.033-0.042 0.106-0.11 0.267-0.181 0.337-0.148 0.916-0.248 1.802-0.248v-1.253zM18.688 27.389c0 0.644 0.289 1.176 0.829 1.528l0.683-1.049c-0.185-0.121-0.259-0.259-0.259-0.478h-1.253zM19.524 28.921c0.511 0.323 1.187 0.445 1.944 0.445v-1.253c-0.654 0-1.052-0.11-1.274-0.251l-0.669 1.058zM21.468 29.367c0.743 0 1.469-0.061 2.178-0.18l-0.21-1.235c-0.585 0.103-1.259 0.163-1.947 0.163-0.007 0-0.015 0-0.022-0h0.001v1.253zM22.915 28.583l0.042 1.927 1.253-0.028-0.043-1.927-1.252 0.028zM23.424 29.89c-0.716 0.189-1.506 0.285-2.372 0.285v1.252c0.96 0 1.858-0.107 2.691-0.327l-0.319-1.211zM21.053 30.175c-0.884 0-1.6-0.070-2.159-0.199l-0.281 1.221c0.681 0.157 1.499 0.23 2.44 0.23v-1.252zM18.889 29.976c-0.598-0.133-1.029-0.275-1.317-0.416l-0.55 1.125c0.413 0.202 0.952 0.371 1.594 0.514l0.273-1.223zM17.572 29.56c-0.305-0.147-0.568-0.319-0.806-0.518l0.006 0.005-0.81 0.955c0.313 0.265 0.668 0.493 1.061 0.684l0.549-1.125zM16.772 29.045c-0.426-0.36-0.644-0.83-0.64-1.476l-1.253-0.006c-0.005 0.985 0.352 1.819 1.085 2.438l0.808-0.957zM16.132 27.565c0-0.421 0.082-0.781 0.236-1.095l-1.126-0.551c-0.23 0.468-0.364 1.018-0.364 1.6 0 0.016 0 0.032 0 0.048l-0-0.002h1.252zM16.367 26.472c0.285-0.579 0.788-1.029 1.581-1.331l-0.445-1.171c-1.034 0.392-1.811 1.036-2.26 1.948l1.124 0.553zM17.95 25.142c0.833-0.32 1.763-0.485 2.796-0.485v-1.252c-1.168 0-2.252 0.186-3.245 0.568l0.45 1.17zM20.746 24.657c1.054 0 2.047 0.118 2.981 0.349l0.301-1.215c-0.966-0.245-2.074-0.386-3.216-0.386-0.023 0-0.046 0-0.069 0h0.004v1.253zM23.253 24.349l-0.152 1.963 1.249 0.098 0.152-1.964-1.248-0.097zM23.842 25.746c-0.533-0.112-1.149-0.18-1.78-0.189l-0.006-0v1.253c0.44 0 0.957 0.053 1.553 0.166l0.233-1.229zM29.952 26.746l-0.003 0.627 0.637 0.003-0.007-0.637-0.627 0.007zM29.683 25.933l-0.426 0.459 0.006 0.005 0.421-0.463zM28.124 25.994l0.434 0.452 0.004-0.005-0.438-0.447zM27.745 26.734l-0.618-0.101-0.12 0.723 0.733 0.004 0.003-0.627zM32.349 30.073l0.379 0.499 0.225-0.171 0.021-0.281-0.625-0.047zM30.998 30.575l-0.135-0.612-0.003 0.001 0.138 0.611zM26.301 30.403l-0.213 0.589 0.005 0.002 0.208-0.591zM25.231 29.835l-0.389 0.491 0.008 0.006 0.381-0.497zM24.515 28.936l-0.562 0.278 0.002 0.003 0.56-0.28zM25.249 25.138v0zM30.973 24.459l0.25-0.574-0.006-0.003-0.244 0.577zM32.41 25.78l-0.563 0.274 0.002 0.003 0.561-0.278zM32.655 26.875l0.625 0.045 0.002-0.023v-0.023h-0.627zM32.582 27.884l-0.003 0.627 0.585 0.003 0.042-0.584-0.624-0.045zM27.622 27.859l0.003-0.627-0.817-0.003 0.208 0.79 0.605-0.16zM28.332 28.734l-0.309 0.545 0.003 0.002 0.306-0.547zM32.136 28.52v-0.626h-0.125l-0.115 0.048 0.241 0.578zM32.466 28.52l0.625 0.047 0.051-0.674h-0.675v0.627zM30.579 26.739c-0.005-0.453-0.109-0.939-0.475-1.271l-0.842 0.928c-0.007-0.007 0.008 0.002 0.025 0.056 0.019 0.057 0.037 0.153 0.039 0.301l1.253-0.013zM30.109 25.474c-0.328-0.305-0.76-0.406-1.185-0.406v1.253c0.244 0 0.318 0.059 0.333 0.071l0.852-0.918zM28.925 25.068c-0.467 0-0.9 0.147-1.24 0.479l0.877 0.894c0.068-0.067 0.168-0.12 0.362-0.12v-1.253zM27.689 25.542c-0.294 0.283-0.497 0.659-0.562 1.080l-0.001 0.011 1.236 0.203c0.020-0.154 0.091-0.289 0.195-0.39l0-0-0.867-0.904zM27.741 27.361l2.208 0.012 0.007-1.252-2.208-0.013-0.007 1.252zM31.971 29.575c-0.137 0.104-0.472 0.248-1.108 0.388l0.269 1.224c0.661-0.146 1.227-0.335 1.595-0.615l-0.756-0.997zM30.86 29.964c-0.525 0.127-1.129 0.202-1.75 0.205h-0.002v1.253c0.662 0 1.339-0.080 2.028-0.236l-0.276-1.221zM29.108 30.168c-0.59 0-1.076-0.028-1.464-0.080l-0.168 1.241c0.461 0.062 1.006 0.092 1.631 0.092v-1.253zM27.645 30.088c-0.381-0.051-0.758-0.143-1.135-0.275l-0.417 1.181c0.455 0.16 0.917 0.273 1.384 0.335l0.168-1.241zM26.515 29.815c-0.345-0.121-0.644-0.282-0.911-0.483l0.009 0.006-0.762 0.994c0.356 0.274 0.772 0.492 1.238 0.66l0.427-1.177zM25.619 29.343c-0.227-0.185-0.411-0.414-0.539-0.675l-0.005-0.012-1.12 0.56c0.22 0.441 0.514 0.815 0.887 1.11l0.777-0.982zM25.076 28.659c-0.131-0.267-0.211-0.61-0.211-1.050h-1.253c0 0.588 0.105 1.129 0.34 1.605l1.123-0.556zM24.866 27.608c0-0.44 0.080-0.829 0.23-1.176l-1.149-0.499c-0.211 0.482-0.334 1.043-0.334 1.634 0 0.014 0 0.028 0 0.043l-0-0.002h1.253zM25.096 26.433c0.158-0.364 0.351-0.632 0.57-0.827l-0.834-0.936c-0.376 0.335-0.668 0.764-0.885 1.264l1.149 0.499zM25.666 25.605c0.674-0.6 1.7-0.947 3.179-0.947v-1.253c-1.659 0-3.030 0.39-4.013 1.266l0.834 0.935zM28.845 24.658c0.664 0 1.29 0.126 1.884 0.378l0.489-1.154c-0.693-0.302-1.501-0.478-2.35-0.478-0.008 0-0.016 0-0.025 0h0.001v1.253zM30.723 25.033c0.555 0.242 0.913 0.584 1.125 1.021l1.126-0.547c-0.359-0.739-0.958-1.276-1.75-1.622l-0.501 1.149zM31.849 26.057c0.117 0.237 0.179 0.505 0.179 0.817h1.253c0-0.487-0.101-0.947-0.31-1.371l-1.123 0.554zM32.030 26.829l-0.073 1.009 1.25 0.091 0.073-1.009-1.25-0.091zM32.585 27.257l-4.96-0.024-0.007 1.253 4.96 0.024 0.007-1.253zM27.016 28.019c0.147 0.555 0.504 0.976 1.007 1.26l0.616-1.091c-0.248-0.14-0.362-0.302-0.412-0.488l-1.211 0.319zM28.025 29.281c0.509 0.284 1.144 0.397 1.853 0.397v-1.252c-0.595 0-0.99-0.099-1.241-0.239l-0.611 1.094zM29.878 29.678c0.762 0 1.599-0.206 2.499-0.58l-0.482-1.156c-0.805 0.335-1.474 0.484-2.016 0.484v1.252zM32.135 29.146h0.331v-1.252h-0.33v1.252zM31.841 28.473l-0.116 1.554 1.25 0.093 0.116-1.553-1.25-0.093z"></path>
</symbol>
</svg>
<symbol id="icon-arrow-hero" viewBox="0 0 82 32">
<path style="fill: var(--color1, #fcfcfc)" d="M81.414 17.414c0.781-0.781 0.781-2.047 0-2.828l-12.728-12.728c-0.781-0.781-2.047-0.781-2.828 0s-0.781 2.047 0 2.828l11.314 11.314-11.314 11.314c-0.781 0.781-0.781 2.047 0 2.828s2.047 0.781 2.828 0l12.728-12.728zM0 18h80v-4h-80v4z"></path>
</symbol>


</defs>
</svg>
